ffmpeg version 3.4.8-0ubuntu0.2 Copyright (c) 2000-2020 the FFmpeg developers
  built with gcc 7 (Ubuntu 7.5.0-3ubuntu1~18.04)
  configuration: --prefix=/usr --extra-version=0ubuntu0.2 --toolchain=hardened --libdir=/usr/lib/x86_64-linux-gnu --incdir=/usr/include/x86_64-linux-gnu --enable-gpl --disable-stripping --enable-avresample --enable-avisynth --enable-gnutls --enable-ladspa --enable-libass --enable-libbluray --enable-libbs2b --enable-libcaca --enable-libcdio --enable-libflite --enable-libfontconfig --enable-libfreetype --enable-libfribidi --enable-libgme --enable-libgsm --enable-libmp3lame --enable-libmysofa --enable-libopenjpeg --enable-libopenmpt --enable-libopus --enable-libpulse --enable-librubberband --enable-librsvg --enable-libshine --enable-libsnappy --enable-libsoxr --enable-libspeex --enable-libssh --enable-libtheora --enable-libtwolame --enable-libvorbis --enable-libvpx --enable-libwavpack --enable-libwebp --enable-libx265 --enable-libxml2 --enable-libxvid --enable-libzmq --enable-libzvbi --enable-omx --enable-openal --enable-opengl --enable-sdl2 --enable-libdc1394 --enable-libdrm --enable-libiec61883 --enable-chromaprint --enable-frei0r --enable-libopencv --enable-libx264 --enable-shared
  libavutil      55. 78.100 / 55. 78.100
  libavcodec     57.107.100 / 57.107.100
  libavformat    57. 83.100 / 57. 83.100
  libavdevice    57. 10.100 / 57. 10.100
  libavfilter     6.107.100 /  6.107.100
  libavresample   3.  7.  0 /  3.  7.  0
  libswscale      4.  8.100 /  4.  8.100
  libswresample   2.  9.100 /  2.  9.100
  libpostproc    54.  7.100 / 54.  7.100
Input #0, yuv4mpegpipe, from '../.././Samples/Netflix_Boat_4096x2160_60fps_10bit_420.y4m':
  Duration: 00:00:05.00, start: 0.000000, bitrate: 12740201 kb/s
    Stream #0:0: Video: rawvideo (Y3[11][10] / 0xA0B3359), yuv420p10le(progressive), 4096x2160, SAR 1:1 DAR 256:135, 60 fps, 60 tbr, 60 tbn, 60 tbc
Stream mapping:
  Stream #0:0 -> #0:0 (rawvideo (native) -> h264 (libx264))
Press [q] to stop, [?] for help
[libx264 @ 0x55d4ea5ff240] using SAR=1/1
[libx264 @ 0x55d4ea5ff240] using cpu capabilities: MMX2 SSE2Fast SSSE3 SSE4.2 AVX FMA3 BMI2 AVX2
[libx264 @ 0x55d4ea5ff240] profile High, level 5.2
[libx264 @ 0x55d4ea5ff240] 264 - core 152 r2854 e9a5903 - H.264/MPEG-4 AVC codec - Copyleft 2003-2017 - http://www.videolan.org/x264.html - options: cabac=1 ref=3 deblock=1:0:0 analyse=0x3:0x113 me=hex subme=7 psy=1 psy_rd=1.00:0.00 mixed_ref=1 me_range=16 chroma_me=1 trellis=1 8x8dct=1 cqm=0 deadzone=21,11 fast_pskip=1 chroma_qp_offset=-2 threads=6 lookahead_threads=1 sliced_threads=0 nr=0 decimate=1 interlaced=0 bluray_compat=0 constrained_intra=0 bframes=3 b_pyramid=2 b_adapt=1 b_bias=0 direct=1 weightb=1 open_gop=0 weightp=2 keyint=250 keyint_min=25 scenecut=40 intra_refresh=0 rc_lookahead=40 rc=crf mbtree=1 crf=23.0 qcomp=0.60 qpmin=0 qpmax=69 qpstep=4 ip_ratio=1.40 aq=1:1.00
Output #0, mov, to '/home/aleksandr/Pract/Samples/Netflix_Boat_4096x2160_60fps_10bit_420.y4m_tc/output2.mov':
  Metadata:
    encoder         : Lavf57.83.100
    Stream #0:0: Video: h264 (libx264) (avc1 / 0x31637661), yuv420p, 4096x2160 [SAR 1:1 DAR 256:135], q=-1--1, 60 fps, 15360 tbn, 60 tbc
    Metadata:
      encoder         : Lavc57.107.100 libx264
    Side data:
      cpb: bitrate max/min/avg: 0/0/0 buffer size: 0 vbv_delay: -1
frame=    4 fps=0.0 q=0.0 size=       0kB time=00:00:00.00 bitrate=N/A speed=   0x    frame=    7 fps=5.7 q=0.0 size=       0kB time=00:00:00.00 bitrate=N/A speed=   0x    frame=   10 fps=5.2 q=0.0 size=       0kB time=00:00:00.00 bitrate=N/A speed=   0x    frame=   13 fps=5.0 q=0.0 size=       0kB time=00:00:00.00 bitrate=N/A speed=   0x    frame=   16 fps=4.8 q=0.0 size=       0kB time=00:00:00.00 bitrate=N/A speed=   0x    frame=   18 fps=4.7 q=0.0 size=       0kB time=00:00:00.00 bitrate=N/A speed=   0x    frame=   20 fps=4.6 q=0.0 size=       0kB time=00:00:00.00 bitrate=N/A speed=   0x    frame=   23 fps=4.6 q=0.0 size=       0kB time=00:00:00.00 bitrate=N/A speed=   0x    frame=   26 fps=4.5 q=0.0 size=       0kB time=00:00:00.00 bitrate=N/A speed=   0x    frame=   29 fps=4.5 q=0.0 size=       0kB time=00:00:00.00 bitrate=N/A speed=   0x    frame=   32 fps=4.4 q=0.0 size=       0kB time=00:00:00.00 bitrate=N/A speed=   0x    frame=   35 fps=4.4 q=0.0 size=       0kB time=00:00:00.00 bitrate=N/A speed=   0x    frame=   38 fps=4.4 q=0.0 size=       0kB time=00:00:00.00 bitrate=N/A speed=   0x    frame=   41 fps=4.3 q=0.0 size=       0kB time=00:00:00.00 bitrate=N/A speed=   0x    frame=   43 fps=4.3 q=0.0 size=       0kB time=00:00:00.00 bitrate=N/A speed=   0x    frame=   46 fps=4.3 q=0.0 size=       0kB time=00:00:00.00 bitrate=N/A speed=   0x    frame=   47 fps=3.9 q=0.0 size=       0kB time=00:00:00.00 bitrate=N/A speed=   0x    frame=   50 fps=3.9 q=0.0 size=       0kB time=00:00:00.00 bitrate=N/A speed=   0x    frame=   53 fps=3.9 q=31.0 size=     768kB time=00:00:00.00 bitrate=96796061.5kbits/s speed=4.81e-06x    frame=   56 fps=4.0 q=31.0 size=    1024kB time=00:00:00.05 bitrate=167560.1kbits/s speed=0.00355x    frame=   59 fps=4.0 q=31.0 size=    1024kB time=00:00:00.10 bitrate=83834.5kbits/s speed=0.0068x    frame=   62 fps=4.1 q=31.0 size=    1280kB time=00:00:00.15 bitrate=69876.7kbits/s speed=0.00981x    frame=   65 fps=4.1 q=31.0 size=    1536kB time=00:00:00.20 bitrate=62895.6kbits/s speed=0.0125x    frame=   68 fps=4.1 q=31.0 size=    1792kB time=00:00:00.25 bitrate=58706.1kbits/s speed=0.0151x    frame=   71 fps=4.1 q=31.0 size=    1792kB time=00:00:00.30 bitrate=48923.9kbits/s speed=0.0175x    frame=   74 fps=4.2 q=31.0 size=    2048kB time=00:00:00.35 bitrate=47926.8kbits/s speed=0.0197x    frame=   77 fps=4.2 q=31.0 size=    2304kB time=00:00:00.40 bitrate=47179.0kbits/s speed=0.0217x    frame=   80 fps=4.2 q=31.0 size=    2560kB time=00:00:00.45 bitrate=46597.3kbits/s speed=0.0237x    frame=   83 fps=4.2 q=31.0 size=    2560kB time=00:00:00.50 bitrate=41938.2kbits/s speed=0.0255x    frame=   86 fps=4.3 q=31.0 size=    2816kB time=00:00:00.55 bitrate=41938.6kbits/s speed=0.0272x    frame=   89 fps=4.3 q=31.0 size=    3072kB time=00:00:00.60 bitrate=41939.0kbits/s speed=0.0289x    frame=   92 fps=4.3 q=31.0 size=    3328kB time=00:00:00.65 bitrate=41939.3kbits/s speed=0.0303x    frame=   95 fps=4.3 q=31.0 size=    3328kB time=00:00:00.70 bitrate=38943.9kbits/s speed=0.0317x    frame=   98 fps=4.3 q=31.0 size=    3584kB time=00:00:00.75 bitrate=39143.8kbits/s speed=0.0331x    frame=  101 fps=4.3 q=31.0 size=    3840kB time=00:00:00.80 bitrate=39318.8kbits/s speed=0.0344x    frame=  104 fps=4.4 q=31.0 size=    4096kB time=00:00:00.85 bitrate=39473.1kbits/s speed=0.0356x    frame=  107 fps=4.4 q=31.0 size=    4096kB time=00:00:00.90 bitrate=37280.3kbits/s speed=0.0368x    frame=  110 fps=4.4 q=31.0 size=    4352kB time=00:00:00.95 bitrate=37525.7kbits/s speed=0.038x    frame=  113 fps=4.4 q=31.0 size=    4608kB time=00:00:01.00 bitrate=37746.6kbits/s speed=0.039x    frame=  116 fps=4.4 q=31.0 size=    4864kB time=00:00:01.05 bitrate=37946.4kbits/s speed=0.0401x    frame=  119 fps=4.4 q=31.0 size=    4864kB time=00:00:01.10 bitrate=36221.7kbits/s speed=0.0411x    frame=  122 fps=4.4 q=31.0 size=    5120kB time=00:00:01.15 bitrate=36470.4kbits/s speed=0.0419x    frame=  125 fps=4.5 q=31.0 size=    5376kB time=00:00:01.20 bitrate=36698.4kbits/s speed=0.0427x    frame=  128 fps=4.5 q=31.0 size=    5632kB time=00:00:01.25 bitrate=36908.2kbits/s speed=0.0436x    frame=  131 fps=4.5 q=31.0 size=    5632kB time=00:00:01.30 bitrate=35488.7kbits/s speed=0.0445x    frame=  134 fps=4.5 q=31.0 size=    5888kB time=00:00:01.35 bitrate=35727.7kbits/s speed=0.0453x    frame=  137 fps=4.5 q=31.0 size=    6144kB time=00:00:01.40 bitrate=35949.7kbits/s speed=0.046x    frame=  140 fps=4.5 q=31.0 size=    6400kB time=00:00:01.45 bitrate=36156.4kbits/s speed=0.0465x    frame=  143 fps=4.5 q=31.0 size=    6400kB time=00:00:01.50 bitrate=34951.2kbits/s speed=0.0472x    frame=  146 fps=4.5 q=31.0 size=    6656kB time=00:00:01.55 bitrate=35176.7kbits/s speed=0.0476x    frame=  149 fps=4.5 q=31.0 size=    6912kB time=00:00:01.60 bitrate=35388.2kbits/s speed=0.0483x    frame=  152 fps=4.5 q=31.0 size=    7168kB time=00:00:01.65 bitrate=35586.8kbits/s speed=0.0489x    frame=  155 fps=4.5 q=31.0 size=    7168kB time=00:00:01.70 bitrate=34540.2kbits/s speed=0.0495x    frame=  158 fps=4.5 q=31.0 size=    7424kB time=00:00:01.75 bitrate=34751.7kbits/s speed=0.0501x    frame=  161 fps=4.5 q=31.0 size=    7680kB time=00:00:01.80 bitrate=34951.4kbits/s speed=0.0507x    frame=  164 fps=4.5 q=31.0 size=    7936kB time=00:00:01.85 bitrate=35140.4kbits/s speed=0.0512x    frame=  167 fps=4.5 q=31.0 size=    8192kB time=00:00:01.90 bitrate=35319.4kbits/s speed=0.0516x    frame=  169 fps=4.5 q=31.0 size=    8448kB time=00:00:01.93 bitrate=35795.2kbits/s speed=0.0514x    frame=  171 fps=4.5 q=31.0 size=    8448kB time=00:00:01.96 bitrate=35188.5kbits/s speed=0.0516x    frame=  174 fps=4.5 q=31.0 size=    8704kB time=00:00:02.01 bitrate=35355.9kbits/s speed=0.052x    frame=  177 fps=4.5 q=31.0 size=    8960kB time=00:00:02.06 bitrate=35515.3kbits/s speed=0.0525x    frame=  180 fps=4.5 q=31.0 size=    9216kB time=00:00:02.11 bitrate=35667.1kbits/s speed=0.053x    frame=  183 fps=4.5 q=31.0 size=    9216kB time=00:00:02.16 bitrate=34844.1kbits/s speed=0.0535x    frame=  186 fps=4.5 q=31.0 size=    9472kB time=00:00:02.21 bitrate=35004.2kbits/s speed=0.0539x    frame=  189 fps=4.5 q=31.0 size=    9728kB time=00:00:02.26 bitrate=35157.3kbits/s speed=0.0543x    frame=  192 fps=4.5 q=31.0 size=    9984kB time=00:00:02.31 bitrate=35303.7kbits/s speed=0.0547x    frame=  195 fps=4.5 q=31.0 size=    9984kB time=00:00:02.36 bitrate=34557.9kbits/s speed=0.0551x    frame=  198 fps=4.5 q=31.0 size=   10240kB time=00:00:02.41 bitrate=34710.7kbits/s speed=0.0554x    frame=  201 fps=4.5 q=31.0 size=   10496kB time=00:00:02.46 bitrate=34857.3kbits/s speed=0.0557x    frame=  204 fps=4.5 q=31.0 size=   10752kB time=00:00:02.51 bitrate=34998.0kbits/s speed=0.0561x    frame=  207 fps=4.6 q=31.0 size=   11008kB time=00:00:02.56 bitrate=35133.3kbits/s speed=0.0564x    frame=  210 fps=4.6 q=31.0 size=   11264kB time=00:00:02.61 bitrate=35263.4kbits/s speed=0.0568x    frame=  213 fps=4.6 q=31.0 size=   11520kB time=00:00:02.66 bitrate=35388.7kbits/s speed=0.0571x    frame=  216 fps=4.6 q=31.0 size=   11776kB time=00:00:02.71 bitrate=35509.3kbits/s speed=0.0574x    frame=  219 fps=4.6 q=31.0 size=   11776kB time=00:00:02.76 bitrate=34867.6kbits/s speed=0.0577x    frame=  222 fps=4.6 q=31.0 size=   12032kB time=00:00:02.81 bitrate=34993.2kbits/s speed=0.058x    frame=  224 fps=4.6 q=31.0 size=   12288kB time=00:00:02.85 bitrate=35319.8kbits/s speed=0.058x    frame=  227 fps=4.6 q=31.0 size=   12288kB time=00:00:02.90 bitrate=34710.8kbits/s speed=0.0582x    frame=  230 fps=4.6 q=31.0 size=   12544kB time=00:00:02.95 bitrate=34833.4kbits/s speed=0.0585x    frame=  233 fps=4.6 q=31.0 size=   12800kB time=00:00:03.00 bitrate=34951.9kbits/s speed=0.0587x    frame=  236 fps=4.6 q=31.0 size=   13056kB time=00:00:03.05 bitrate=35066.5kbits/s speed=0.0589x    frame=  239 fps=4.6 q=31.0 size=   13312kB time=00:00:03.10 bitrate=35177.4kbits/s speed=0.0591x    frame=  242 fps=4.6 q=31.0 size=   13568kB time=00:00:03.15 bitrate=35284.8kbits/s speed=0.0593x    frame=  245 fps=4.6 q=31.0 size=   13824kB time=00:00:03.20 bitrate=35388.8kbits/s speed=0.0595x    frame=  248 fps=4.6 q=31.0 size=   14080kB time=00:00:03.25 bitrate=35489.6kbits/s speed=0.0597x    frame=  250 fps=4.5 q=31.0 size=   14080kB time=00:00:03.28 bitrate=35129.4kbits/s speed=0.0597x    frame=  253 fps=4.5 q=31.0 size=   14336kB time=00:00:03.33 bitrate=35231.6kbits/s speed=0.0599x    frame=  256 fps=4.5 q=31.0 size=   14592kB time=00:00:03.38 bitrate=35330.7kbits/s speed=0.0601x    frame=  259 fps=4.6 q=31.0 size=   14848kB time=00:00:03.43 bitrate=35427.0kbits/s speed=0.0604x    frame=  262 fps=4.6 q=31.0 size=   15104kB time=00:00:03.48 bitrate=35520.6kbits/s speed=0.0606x    frame=  265 fps=4.6 q=31.0 size=   15360kB time=00:00:03.53 bitrate=35611.4kbits/s speed=0.0608x    frame=  268 fps=4.6 q=31.0 size=   15616kB time=00:00:03.58 bitrate=35699.8kbits/s speed=0.061x    frame=  271 fps=4.6 q=31.0 size=   15616kB time=00:00:03.63 bitrate=35208.5kbits/s speed=0.0613x    frame=  274 fps=4.6 q=31.0 size=   15872kB time=00:00:03.68 bitrate=35299.9kbits/s speed=0.0614x    frame=  277 fps=4.6 q=31.0 size=   16128kB time=00:00:03.73 bitrate=35388.9kbits/s speed=0.0616x    frame=  280 fps=4.6 q=31.0 size=   16384kB time=00:00:03.78 bitrate=35475.5kbits/s speed=0.0617x    frame=  283 fps=4.6 q=31.0 size=   16384kB time=00:00:03.83 bitrate=35012.8kbits/s speed=0.0619x    frame=  286 fps=4.6 q=31.0 size=   16896kB time=00:00:03.88 bitrate=35642.1kbits/s speed=0.0621x    frame=  289 fps=4.6 q=31.0 size=   17152kB time=00:00:03.93 bitrate=35722.2kbits/s speed=0.0622x    frame=  292 fps=4.6 q=31.0 size=   17408kB time=00:00:03.98 bitrate=35800.2kbits/s speed=0.0624x    frame=  295 fps=4.6 q=31.0 size=   17408kB time=00:00:04.03 bitrate=35356.4kbits/s speed=0.0625x    frame=  296 fps=4.5 q=29.0 size=   17664kB time=00:00:04.05 bitrate=35728.8kbits/s speed=0.0616x    frame=  297 fps=4.5 q=31.0 size=   17664kB time=00:00:04.06 bitrate=35582.3kbits/s speed=0.0613x    frame=  300 fps=4.5 q=31.0 size=   17664kB time=00:00:04.11 bitrate=35150.2kbits/s speed=0.0615x    frame=  300 fps=4.4 q=31.0 size=   17664kB time=00:00:04.11 bitrate=35150.2kbits/s speed=0.061x    frame=  300 fps=4.0 q=-1.0 Lsize=   21998kB time=00:00:04.95 bitrate=36404.9kbits/s speed=0.0663x    
video:21993kB audio:0kB subtitle:0kB other streams:0kB global headers:0kB muxing overhead: 0.020780%
[libx264 @ 0x55d4ea5ff240] frame I:2     Avg QP:24.68  size:795160
[libx264 @ 0x55d4ea5ff240] frame P:76    Avg QP:26.68  size:189801
[libx264 @ 0x55d4ea5ff240] frame B:222   Avg QP:31.81  size: 29303
[libx264 @ 0x55d4ea5ff240] consecutive B-frames:  1.3%  0.0%  0.0% 98.7%
[libx264 @ 0x55d4ea5ff240] mb I  I16..4:  9.2% 73.0% 17.8%
[libx264 @ 0x55d4ea5ff240] mb P  I16..4:  0.3%  1.8%  0.4%  P16..4: 35.3% 18.8% 11.8%  0.0%  0.0%    skip:31.7%
[libx264 @ 0x55d4ea5ff240] mb B  I16..4:  0.0%  0.0%  0.0%  B16..8: 31.5%  2.0%  0.8%  direct: 1.9%  skip:63.9%  L0:37.4% L1:55.2% BI: 7.4%
[libx264 @ 0x55d4ea5ff240] 8x8 transform intra:73.5% inter:74.1%
[libx264 @ 0x55d4ea5ff240] coded y,uvDC,uvAC intra: 83.0% 83.1% 55.6% inter: 11.4% 8.7% 0.7%
[libx264 @ 0x55d4ea5ff240] i16 v,h,dc,p: 63% 20% 13%  5%
[libx264 @ 0x55d4ea5ff240] i8 v,h,dc,ddl,ddr,vr,hd,vl,hu: 11% 11% 12% 12%  9%  9%  9% 13% 15%
[libx264 @ 0x55d4ea5ff240] i4 v,h,dc,ddl,ddr,vr,hd,vl,hu: 15% 13% 11% 11% 11% 10%  9% 11% 10%
[libx264 @ 0x55d4ea5ff240] i8c dc,h,v,p: 62% 16% 14%  8%
[libx264 @ 0x55d4ea5ff240] Weighted P-Frames: Y:0.0% UV:0.0%
[libx264 @ 0x55d4ea5ff240] ref P L0: 64.5% 21.7%  8.9%  4.8%
[libx264 @ 0x55d4ea5ff240] ref B L0: 96.0%  2.8%  1.1%
[libx264 @ 0x55d4ea5ff240] ref B L1: 99.1%  0.9%
[libx264 @ 0x55d4ea5ff240] kb/s:36032.68
	Command being timed: "/usr/bin/ffmpeg -i ../.././Samples/Netflix_Boat_4096x2160_60fps_10bit_420.y4m -c:v libx264 -f mov /home/aleksandr/Pract/Samples/Netflix_Boat_4096x2160_60fps_10bit_420.y4m_tc/output2.mov"
	User time (seconds): 186.16
	System time (seconds): 5.30
	Percent of CPU this job got: 254%
	Elapsed (wall clock) time (h:mm:ss or m:ss): 1:15.29
	Average shared text size (kbytes): 0
	Average unshared data size (kbytes): 0
	Average stack size (kbytes): 0
	Average total size (kbytes): 0
	Maximum resident set size (kbytes): 1973208
	Average resident set size (kbytes): 0
	Major (requiring I/O) page faults: 31
	Minor (reclaiming a frame) page faults: 212386
	Voluntary context switches: 22651
	Involuntary context switches: 8096
	Swaps: 0
	File system inputs: 15553744
	File system outputs: 44072
	Socket messages sent: 0
	Socket messages received: 0
	Signals delivered: 0
	Page size (bytes): 4096
	Exit status: 0
